 General
      Complete name : The.Thin.Red.Line.1998.HDRip.H264.AAC.5.1ch.Gopo.mp4
      Format : MPEG-4
      Format profile : Base Media
      Codec ID : isom
      File size : 2.80 GiB
      Duration : 2h 50mn
      Overall bit rate : 2 354 Kbps
      Encoded date : UTC 2009-12-09 00:01:18
      Tagged date : UTC 2009-12-09 00:01:18
   Video #1
      ID : 1
      Format : AVC
      Format/Info : Advanced Video Codec
      Format profile : High@L4.1
      Format settings, CABAC : Yes
      Format settings, ReFrames : 2 frames
      Codec ID : avc1
      Codec ID/Info : Advanced Video Coding
      Duration : 2h 50mn
      Bit rate mode : Variable
      Bit rate : 2 052 Kbps
      Maximum bit rate : 12.4 Mbps
      Width : 1 280 pixels
      Height : 544 pixels
      Display aspect ratio : 2.35:1
      Frame rate mode : Constant
      Frame rate : 23.976 fps
      Resolution : 24 bits
      Colorimetry : 4:2:0
      Scan type : Progressive
      Bits/(Pixel*Frame) : 0.123
      Stream size : 2.44 GiB (87%)
      Writing library : x264 core 79 r1360 528c100
      Encoding settings : cabac=1 / ref=2 / deblock=1:0:0 / analyse=0x3:0x113 / me=umh / subme=8 / psy=1 / psy_rd=1.0:0.0 / mixed_ref=1 / me_range=16 / chroma_me=1 / trellis=2 / 8x8dct=1 / cqm=0 / deadzone=21,11 / chroma_qp_offset=-2 / threads=3 / nr=0 / decimate=1 / mbaff=0 / constrained_intra=0 / bframes=3 / b_pyramid=0 / b_adapt=2 / b_bias=0 / direct=3 / wpredb=1 / wpredp=2 / keyint=250 / keyint_min=25 / scenecut=40 / rc_lookahead=30 / rc=2pass / mbtree=1 / bitrate=2052 / ratetol=1.0 / qcomp=0.50 / qpmin=10 / qpmax=51 / qpstep=4 / cplxblur=20.0 / qblur=0.5 / vbv_maxrate=24000 / vbv_bufsize=24000 / ip_ratio=1.10 / aq=1:1.00 / cabac=1 / ref=2 / deblock=1:0:0 / analyse=0x3:0x113 / me=umh / subme=8 / psy=1 / psy_rd=1.0:0.0 / mixed_ref=1 / me_range=16 / chroma_me=1 / trellis=2 / 8x8dct=1 / cqm=0 / deadzone=21,11 / chroma_qp_offset=-2 / threads=3 / nr=0 / decimate=1 / mbaff=0 / constrained_intra=0 / bframes=3 / b_pyramid=0 / b_adapt=2 / b_bias=0 / direct=3 / wpredb=1 / wpredp=2 / keyint=250 / keyint_min=25 / scenecut=40 / rc_lookahead=30 / rc=2pass / mbtree=1 / bitrate=2052 / ratetol=1.0 / qcomp=0.50 / qpmin=10 / qpmax=51 / qpstep=4 / cplxblur=20.0 / qblur=0.5 / vbv_maxrate=24000 / vbv_bufsize=24000 / ip_ratio=1.10 / aq=1:1.00
      Encoded date : UTC 2009-12-08 02:38:32
      Tagged date : UTC 2009-12-09 00:05:10
   Audio #2
      ID : 2
      Format : AAC
      Format/Info : Advanced Audio Codec
      Format version : Version 4
      Format profile : LC
      Format settings, SBR : No
      Codec ID : 40
      Duration : 2h 50mn
      Bit rate mode : Variable
      Bit rate : 299 Kbps
      Maximum bit rate : 350 Kbps
      Channel(s) : 6 channels
      Channel positions : Front: L C R, Rear: L R, LFE
      Sampling rate : 48.0 KHz
      Resolution : 16 bits
      Stream size : 364 MiB (13%)
      Encoded date : UTC 2009-12-09 00:04:17
      Tagged date : UTC 2009-12-09 00:05:10
	Sample : YES
	Subtitle : English,Romanian

PLOT

In World War II, the outcome of the battle of Guadalcanal will strongly influence the Japanese's advance into the pacific. A group of young soldiers is brought in as a relief for the battle-weary Marine units. The exhausting fight for a key-positioned airfield that allows control over a 1000-mile radius puts the men of the Army Rifle company C-for-Charlie through hell. The horrors of war forms the soldiers into a tight-knit group, their emotions develop into bonds of love and even family. The reasons for this war get further away as the world for the men gets smaller and smaller until their fighting is for mere survival and the life of the other men with them.
Director: Terrence Malick
CASTING
      
      Kirk Acevedo	... 	Pvt. Tella
	Sean Penn	... 	1st Sgt. Welsh
	Penelope Allen	... 	Witt's Mother (as Penny Allen)
	Adrien Brody	... 	Cpl. Fife
	James Caviezel	... 	Pvt. Witt (as Jim Caviezel)
	Benjamin Green	... 	Melanesian Villager (as Benjamin)
	Simon Billig	... 	Lt. Col. Billig
	Ben Chaplin	... 	Pvt. Bell
	Mark Boone Junior	... 	Pvt. Peale
	George Clooney	... 	Capt. Bosche
	John Cusack	... 	Capt. Gaff
	Norman Patrick Brown	... 	Pvt. Henry
	Woody Harrelson	... 	Sgt. Keck
	Elias Koteas	... 	Capt. Staros
	Nick Nolte	... 	Lt. Col. Tall

SOURCE: Thin.Red.Line.1998.720p.HDTV.DTS.x264-DON.mkv

Notes: For best performance I suggest you to use KMPlayer(find it with google) for playback
I haven't tested the movies on a PS3 or Xbox or other devices than PC because I don't own one of them but feel free to test them if you have the oportunity.
